<svg width="88" height="96" viewBox="0 0 88 96" fill="none" xmlns="http://www.w3.org/2000/svg">
<g filter="url(#filter0_d_18_575)">
<g filter="url(#filter1_b_18_575)">
<path d="M4 47.8954C4 25.8618 21.9664 8 44 8C66.0336 8 84 25.8618 84 47.8954C84 69.929 66.0336 87.7908 44 87.7908C21.9664 87.7908 4 69.929 4 47.8954Z" fill="url(#paint0_radial_18_575)"/>
<path d="M4.5 47.8954C4.5 26.1396 22.2408 8.5 44 8.5C65.7592 8.5 83.5 26.1396 83.5 47.8954C83.5 69.6512 65.7592 87.2908 44 87.2908C22.2408 87.2908 4.5 69.6512 4.5 47.8954Z" stroke="url(#paint1_radial_18_575)"/>
<path d="M4.5 47.8954C4.5 26.1396 22.2408 8.5 44 8.5C65.7592 8.5 83.5 26.1396 83.5 47.8954C83.5 69.6512 65.7592 87.2908 44 87.2908C22.2408 87.2908 4.5 69.6512 4.5 47.8954Z" stroke="url(#paint2_radial_18_575)"/>
<path d="M4.5 47.8954C4.5 26.1396 22.2408 8.5 44 8.5C65.7592 8.5 83.5 26.1396 83.5 47.8954C83.5 69.6512 65.7592 87.2908 44 87.2908C22.2408 87.2908 4.5 69.6512 4.5 47.8954Z" stroke="url(#paint3_radial_18_575)"/>
</g>
<g filter="url(#filter2_f_18_575)">
<ellipse cx="43.7435" cy="29.4822" rx="25.3846" ry="16.3673" fill="url(#paint4_radial_18_575)" fill-opacity="0.2"/>
</g>
<path d="M58.9333 38.6666V34.9333C58.9333 32.8744 57.2589 31.2 55.1999 31.2H30.9333C27.8458 31.2 25.3333 33.7125 25.3333 36.8V59.1999C25.3333 63.3085 28.6821 64.7999 30.9333 64.7999H58.9333C60.9922 64.7999 62.6666 63.1255 62.6666 61.0666V42.4C62.6666 40.341 60.9922 38.6666 58.9333 38.6666ZM55.1999 55.4666H51.4666V48H55.1999V55.4666ZM30.9333 38.6666C30.4526 38.6451 29.9988 38.4391 29.6663 38.0913C29.3338 37.7436 29.1482 37.2811 29.1482 36.8C29.1482 36.3188 29.3338 35.8563 29.6663 35.5086C29.9988 35.1608 30.4526 34.9548 30.9333 34.9333H55.1999V38.6666H30.9333Z" fill="url(#paint5_linear_18_575)"/>
</g>
<defs>
<filter id="filter0_d_18_575" x="0" y="8" width="88" height="88" filterUnits="userSpaceOnUse" color-interpolation-filters="sRGB">
<feFlood flood-opacity="0" result="BackgroundImageFix"/>
<feColorMatrix in="SourceAlpha" type="matrix" values="0 0 0 0 0 0 0 0 0 0 0 0 0 0 0 0 0 0 127 0" result="hardAlpha"/>
<feOffset dy="4"/>
<feGaussianBlur stdDeviation="2"/>
<feComposite in2="hardAlpha" operator="out"/>
<feColorMatrix type="matrix" values="0 0 0 0 0 0 0 0 0 0 0 0 0 0 0 0 0 0 0.25 0"/>
<feBlend mode="normal" in2="BackgroundImageFix" result="effect1_dropShadow_18_575"/>
<feBlend mode="normal" in="SourceGraphic" in2="effect1_dropShadow_18_575" result="shape"/>
</filter>
<filter id="filter1_b_18_575" x="-1" y="3" width="90" height="89.7908" filterUnits="userSpaceOnUse" color-interpolation-filters="sRGB">
<feFlood flood-opacity="0" result="BackgroundImageFix"/>
<feGaussianBlur in="BackgroundImageFix" stdDeviation="2.5"/>
<feComposite in2="SourceAlpha" operator="in" result="effect1_backgroundBlur_18_575"/>
<feBlend mode="normal" in="SourceGraphic" in2="effect1_backgroundBlur_18_575" result="shape"/>
</filter>
<filter id="filter2_f_18_575" x="5.40435" y="0.160334" width="76.6784" height="58.6437" filterUnits="userSpaceOnUse" color-interpolation-filters="sRGB">
<feFlood flood-opacity="0" result="BackgroundImageFix"/>
<feBlend mode="normal" in="SourceGraphic" in2="BackgroundImageFix" result="shape"/>
<feGaussianBlur stdDeviation="6.47727" result="effect1_foregroundBlur_18_575"/>
</filter>
<radialGradient id="paint0_radial_18_575" cx="0" cy="0" r="1" gradientUnits="userSpaceOnUse" gradientTransform="translate(10.692 8) rotate(47.9449) scale(119.431 86.7751)">
<stop stop-color="white" stop-opacity="0.36"/>
<stop offset="1" stop-color="white" stop-opacity="0"/>
</radialGradient>
<radialGradient id="paint1_radial_18_575" cx="0" cy="0" r="1" gradientUnits="userSpaceOnUse" gradientTransform="translate(-38.5965 16.1628) rotate(35.0407) scale(92.1512 54.3882)">
<stop stop-color="white"/>
<stop offset="1" stop-color="white" stop-opacity="0.06"/>
</radialGradient>
<radialGradient id="paint2_radial_18_575" cx="0" cy="0" r="1" gradientUnits="userSpaceOnUse" gradientTransform="translate(107.421 61.4008) rotate(161.385) scale(66.8428 45.1784)">
<stop stop-color="#8470FF"/>
<stop offset="1" stop-color="#865CFF" stop-opacity="0"/>
</radialGradient>
<radialGradient id="paint3_radial_18_575" cx="0" cy="0" r="1" gradientUnits="userSpaceOnUse" gradientTransform="translate(44.871 -10.2359) rotate(47.2149) scale(44.643 32.0879)">
<stop/>
<stop offset="1" stop-color="white" stop-opacity="0"/>
</radialGradient>
<radialGradient id="paint4_radial_18_575" cx="0" cy="0" r="1" gradientUnits="userSpaceOnUse" gradientTransform="translate(43.7435 13.1149) rotate(90) scale(24.2566 37.625)">
<stop stop-color="white"/>
<stop offset="1" stop-color="white" stop-opacity="0"/>
</radialGradient>
<linearGradient id="paint5_linear_18_575" x1="32.1388" y1="81.2499" x2="78.6098" y2="41.0428" gradientUnits="userSpaceOnUse">
<stop stop-color="#982DEC"/>
<stop offset="0.572917" stop-color="#DC8DF8"/>
<stop offset="0.895833" stop-color="#A9C4F3"/>
</linearGradient>
</defs>
</svg>
